{
    "asset" : {
        "generator" : "Khronos glTF Blender I/O v1.8.19",
        "version" : "2.0"
    },
    "scene" : 19,
    "scenes" : [
        {
            "name" : "compositor_denoise"
        },
        {
            "name" : "SB_Export_Temp"
        },
        {
            "name" : "SB_Export_Temp.001"
        },
        {
            "name" : "SB_Export_Temp.002"
        },
        {
            "name" : "SB_Export_Temp.003"
        },
        {
            "name" : "SB_Export_Temp.004"
        },
        {
            "name" : "SB_Export_Temp.005"
        },
        {
            "name" : "SB_Export_Temp.006"
        },
        {
            "name" : "SB_Export_Temp.007"
        },
        {
            "name" : "SB_Export_Temp.008"
        },
        {
            "name" : "SB_Export_Temp.009"
        },
        {
            "name" : "SB_Export_Temp.010"
        },
        {
            "name" : "SB_Export_Temp.011"
        },
        {
            "name" : "SB_Export_Temp.012"
        },
        {
            "name" : "SB_Export_Temp.013"
        },
        {
            "name" : "SB_Export_Temp.014"
        },
        {
            "name" : "SB_Export_Temp.015"
        },
        {
            "name" : "SB_Export_Temp.016"
        },
        {
            "name" : "SB_Export_Temp.017"
        },
        {
            "name" : "Scene",
            "nodes" : [
                1
            ]
        }
    ],
    "nodes" : [
        {
            "camera" : 0,
            "name" : "Camera_Orientation",
            "rotation" : [
                -0.7071067690849304,
                0,
                0,
                0.7071067690849304
            ]
        },
        {
            "children" : [
                0
            ],
            "name" : "Camera",
            "rotation" : [
                0.7071068286895752,
                0,
                0,
                0.7071067094802856
            ],
            "translation" : [
                1.696970820426941,
                2.3251852989196777,
                0.003632068634033203
            ]
        }
    ],
    "cameras" : [
        {
            "name" : "Camera",
            "orthographic" : {
                "xmag" : 3.9000000953674316,
                "ymag" : 3.9000000953674316,
                "zfar" : 1000,
                "znear" : 0.10000000149011612
            },
            "type" : "orthographic"
        }
    ],
    "animations" : [
        {
            "channels" : [
                {
                    "sampler" : 0,
                    "target" : {
                        "node" : 1,
                        "path" : "translation"
                    }
                },
                {
                    "sampler" : 1,
                    "target" : {
                        "node" : 1,
                        "path" : "rotation"
                    }
                }
            ],
            "name" : "CameraAction",
            "samplers" : [
                {
                    "input" : 0,
                    "interpolation" : "LINEAR",
                    "output" : 1
                },
                {
                    "input" : 2,
                    "interpolation" : "LINEAR",
                    "output" : 3
                }
            ]
        }
    ],
    "accessors" : [
        {
            "bufferView" : 0,
            "componentType" : 5126,
            "count" : 161,
            "max" : [
                6.708333333333333
            ],
            "min" : [
                0.041666666666666664
            ],
            "type" : "SCALAR"
        },
        {
            "bufferView" : 1,
            "componentType" : 5126,
            "count" : 161,
            "type" : "VEC3"
        },
        {
            "bufferView" : 2,
            "componentType" : 5126,
            "count" : 140,
            "max" : [
                5.833333333333333
            ],
            "min" : [
                0.041666666666666664
            ],
            "type" : "SCALAR"
        },
        {
            "bufferView" : 3,
            "componentType" : 5126,
            "count" : 140,
            "type" : "VEC4"
        }
    ],
    "bufferViews" : [
        {
            "buffer" : 0,
            "byteLength" : 644,
            "byteOffset" : 0
        },
        {
            "buffer" : 0,
            "byteLength" : 1932,
            "byteOffset" : 644
        },
        {
            "buffer" : 0,
            "byteLength" : 560,
            "byteOffset" : 2576
        },
        {
            "buffer" : 0,
            "byteLength" : 2240,
            "byteOffset" : 3136
        }
    ],
    "buffers" : [
        {
            "byteLength" : 5376,
            "uri" : "data:application/octet-stream;base64,"
        }
    ]
}
